<?xml version="1.0" standalone="no"?>
<!DOCTYPE svg PUBLIC "-//W3C//DTD SVG 20010904//EN"
 "http://www.w3.org/TR/2001/REC-SVG-20010904/DTD/svg10.dtd">
<svg version="1.0" xmlns="http://www.w3.org/2000/svg"
 width="16.000000pt" height="16.000000pt" viewBox="0 0 16.000000 16.000000"
 preserveAspectRatio="xMidYMid meet">
<metadata>
Created by potrace 1.11, written by Peter Selinger 2001-2013
</metadata>
<g transform="translate(0.000000,16.000000) scale(0.003077,-0.003077)"
fill="#000000" stroke="none">
<path d="M2591 4542 c-13 -20 -34 -53 -46 -72 -12 -19 -69 -109 -126 -200 -57
-90 -108 -172 -114 -182 -5 -10 -95 -154 -200 -320 -104 -165 -203 -323 -220
-349 -31 -51 -226 -362 -479 -764 -80 -126 -160 -255 -179 -285 -18 -30 -150
-239 -291 -465 -142 -225 -297 -472 -345 -548 -47 -76 -102 -163 -122 -195
-20 -31 -59 -94 -87 -140 l-52 -82 2290 0 2290 0 -24 38 c-14 20 -45 71 -71
112 -25 41 -63 102 -83 135 -240 381 -504 801 -675 1075 -115 184 -224 358
-242 385 -18 28 -128 203 -245 390 -559 891 -734 1170 -814 1295 -47 74 -95
152 -106 173 -11 20 -24 37 -28 37 -4 0 -18 -17 -31 -38z m284 -1337 c131
-209 252 -402 270 -430 52 -81 407 -648 422 -675 8 -14 101 -162 207 -330
l192 -305 -673 -3 c-370 -1 -976 -1 -1347 0 l-673 3 83 130 c46 72 90 144 99
162 9 18 23 37 31 44 8 6 14 15 14 20 0 4 44 77 98 162 53 85 102 163 109 173
6 10 130 208 275 438 297 473 315 501 358 571 17 28 84 135 150 240 66 104
120 194 120 199 0 22 37 -34 265 -399z"/>
</g>
</svg>
